<svg xmlns="http://www.w3.org/2000/svg" xmlns:xlink="http://www.w3.org/1999/xlink" width="1850" height="919" version="1.1">
<style type="text/css">
.l0{
 fill: #000000;
  stroke: #000000;
  stroke-linecap:round;
  stroke-linejoin:round;
  stroke-width: 3.71429;
}
.l1{
 fill: #00ccee;
  stroke: #00ccee;
  stroke-linecap:round;
  stroke-linejoin:round;
  stroke-width: 3.71429;
}
.l2{
  fill: none;
  stroke: #3f3f3f;
  stroke-linecap:round;
  stroke-linejoin:round;
  stroke-width: 3.71429;
}
.l3{
 fill: #cccccc; fill-opacity: 0.5;
  stroke: #cccccc;
  stroke-linecap:round;
  stroke-linejoin:round;
  stroke-width: 3.71429;
}
.l4{
 fill: #88dd00;
  stroke: #88dd00;
  stroke-linecap:round;
  stroke-linejoin:round;
  stroke-width: 3.71429;
}
.l5{
 fill: #bb2200;
  stroke: #bb2200;
  stroke-linecap:round;
  stroke-linejoin:round;
  stroke-width: 3.71429;
}
.l6{
 fill: #00ccee; fill-opacity: 0.5;
  stroke: #00ccee;
  stroke-linecap:round;
  stroke-linejoin:round;
  stroke-width: 3.71429;
}
.l7{
 fill: #ff0000; fill-opacity: 0.5;
  stroke: #ff0000;
  stroke-linecap:round;
  stroke-linejoin:round;
  stroke-width: 3.71429;
}
.l8{
 fill: #ffff00; fill-opacity: 0.5;
  stroke: #ffff00;
  stroke-linecap:round;
  stroke-linejoin:round;
  stroke-width: 3.71429;
}
.l9{
 fill: #ffffff; fill-opacity: 0.5;
  stroke: #ffffff;
  stroke-linecap:round;
  stroke-linejoin:round;
  stroke-width: 3.71429;
}
.l10{
 fill: #ff00ff;
  stroke: #ff00ff;
  stroke-linecap:round;
  stroke-linejoin:round;
  stroke-width: 3.71429;
}
.l11{
 fill: #00ff00; fill-opacity: 0.5;
  stroke: #00ff00;
  stroke-linecap:round;
  stroke-linejoin:round;
  stroke-width: 3.71429;
}
.l12{
 fill: #0044dd; fill-opacity: 0.5;
  stroke: #0044dd;
  stroke-linecap:round;
  stroke-linejoin:round;
  stroke-width: 3.71429;
}
.l13{
 fill: #aaaa00; fill-opacity: 0.5;
  stroke: #aaaa00;
  stroke-linecap:round;
  stroke-linejoin:round;
  stroke-width: 3.71429;
}
.l14{
  fill: none;
  stroke: #aaccaa;
  stroke-linecap:round;
  stroke-linejoin:round;
  stroke-width: 3.71429;
}
.l15{
 fill: #ff7777; fill-opacity: 0.5;
  stroke: #ff7777;
  stroke-linecap:round;
  stroke-linejoin:round;
  stroke-width: 3.71429;
}
.l16{
 fill: #bfff81; fill-opacity: 0.5;
  stroke: #bfff81;
  stroke-linecap:round;
  stroke-linejoin:round;
  stroke-width: 3.71429;
}
.l17{
  fill: none;
  stroke: #00ffcc;
  stroke-linecap:round;
  stroke-linejoin:round;
  stroke-width: 3.71429;
}
.l18{
 fill: #ce0097; fill-opacity: 0.5;
  stroke: #ce0097;
  stroke-linecap:round;
  stroke-linejoin:round;
  stroke-width: 3.71429;
}
.l19{
  fill: none;
  stroke: #d2d46b;
  stroke-linecap:round;
  stroke-linejoin:round;
  stroke-width: 3.71429;
}
.l20{
  fill: none;
  stroke: #ef6158;
  stroke-linecap:round;
  stroke-linejoin:round;
  stroke-width: 3.71429;
}
.l21{
  fill: none;
  stroke: #fdb200;
  stroke-linecap:round;
  stroke-linejoin:round;
  stroke-width: 3.71429;
}
text {font-family: Sans-Serif;}
</style>
<rect class="l0" x="0" y="0" width="1850" height="919"/>
<text fill="#cccccc"  xml:space="preserve" font-size="35.7673" transform="translate(952.4, 665.998)" >@name</text>
<text fill="#cccccc"  xml:space="preserve" font-size="35.7673" transform="translate(763.246, 425.257)" >D</text>
<text fill="#cccccc"  xml:space="preserve" font-size="35.7673" transform="translate(900.812, 425.257)" >Q</text>
<text fill="#cccccc"  xml:space="preserve" font-size="35.7673" transform="translate(763.246, 562.824)" >Dn</text>
<text fill="#cccccc"  xml:space="preserve" font-size="35.7673" transform="translate(883.616, 562.824)" >Qn</text>
<path class="l4" d="M746.05 341.193L746.05 616.326"/>
<path class="l4" d="M952.4 341.193L952.4 616.326"/>
<path class="l4" d="M746.05 616.326L952.4 616.326"/>
<path class="l4" d="M746.05 341.193L952.4 341.193"/>
<path class="l4" d="M677.267 409.976L746.05 409.976"/>
<path class="l4" d="M677.267 547.543L746.05 547.543"/>
<path class="l4" d="M780.442 616.326L780.442 685.109"/>
<path class="l4" d="M918.008 616.326L918.008 685.109"/>
<path class="l4" d="M952.4 547.543L1021.18 547.543"/>
<path class="l4" d="M952.4 409.976L1021.18 409.976"/>
<path class="l4" d="M849.225 272.41L849.225 341.193"/>
<path class="l4" d="M883.616 616.326L918.008 581.934"/>
<path class="l4" d="M918.008 581.934L952.4 616.326"/>
<path class="l5" d="M668.669 401.379L685.865 401.379L685.865 418.574L668.669 418.574L668.669 401.379z"/>
<path class="l5" d="M1012.58 401.379L1029.78 401.379L1029.78 418.574L1012.58 418.574L1012.58 401.379z"/>
<path class="l5" d="M840.627 263.812L857.823 263.812L857.823 281.008L840.627 281.008L840.627 263.812z"/>
<path class="l5" d="M771.844 676.511L789.04 676.511L789.04 693.707L771.844 693.707L771.844 676.511z"/>
<path class="l5" d="M909.41 676.511L926.606 676.511L926.606 693.707L909.41 693.707L909.41 676.511z"/>
<path class="l5" d="M668.669 538.945L685.865 538.945L685.865 556.141L668.669 556.141L668.669 538.945z"/>
<path class="l5" d="M1012.58 538.945L1029.78 538.945L1029.78 556.141L1012.58 556.141L1012.58 538.945z"/>
</svg>
