<svg xmlns="http://www.w3.org/2000/svg" xmlns:xlink="http://www.w3.org/1999/xlink" width="1850" height="919" version="1.1">
<style type="text/css">
.l0{
 fill: #000000;
  stroke: #000000;
  stroke-linecap:round;
  stroke-linejoin:round;
  stroke-width: 1.41442;
}
.l1{
 fill: #00ccee;
  stroke: #00ccee;
  stroke-linecap:round;
  stroke-linejoin:round;
  stroke-width: 1.41442;
}
.l2{
  fill: none;
  stroke: #3f3f3f;
  stroke-linecap:round;
  stroke-linejoin:round;
  stroke-width: 1.41442;
}
.l3{
 fill: #cccccc; fill-opacity: 0.5;
  stroke: #cccccc;
  stroke-linecap:round;
  stroke-linejoin:round;
  stroke-width: 1.41442;
}
.l4{
 fill: #88dd00;
  stroke: #88dd00;
  stroke-linecap:round;
  stroke-linejoin:round;
  stroke-width: 1.41442;
}
.l5{
 fill: #bb2200;
  stroke: #bb2200;
  stroke-linecap:round;
  stroke-linejoin:round;
  stroke-width: 1.41442;
}
.l6{
 fill: #00ccee; fill-opacity: 0.5;
  stroke: #00ccee;
  stroke-linecap:round;
  stroke-linejoin:round;
  stroke-width: 1.41442;
}
.l7{
 fill: #ff0000; fill-opacity: 0.5;
  stroke: #ff0000;
  stroke-linecap:round;
  stroke-linejoin:round;
  stroke-width: 1.41442;
}
.l8{
 fill: #ffff00; fill-opacity: 0.5;
  stroke: #ffff00;
  stroke-linecap:round;
  stroke-linejoin:round;
  stroke-width: 1.41442;
}
.l9{
 fill: #ffffff; fill-opacity: 0.5;
  stroke: #ffffff;
  stroke-linecap:round;
  stroke-linejoin:round;
  stroke-width: 1.41442;
}
.l10{
 fill: #ff00ff;
  stroke: #ff00ff;
  stroke-linecap:round;
  stroke-linejoin:round;
  stroke-width: 1.41442;
}
.l11{
 fill: #00ff00; fill-opacity: 0.5;
  stroke: #00ff00;
  stroke-linecap:round;
  stroke-linejoin:round;
  stroke-width: 1.41442;
}
.l12{
 fill: #0044dd; fill-opacity: 0.5;
  stroke: #0044dd;
  stroke-linecap:round;
  stroke-linejoin:round;
  stroke-width: 1.41442;
}
.l13{
 fill: #aaaa00; fill-opacity: 0.5;
  stroke: #aaaa00;
  stroke-linecap:round;
  stroke-linejoin:round;
  stroke-width: 1.41442;
}
.l14{
  fill: none;
  stroke: #aaccaa;
  stroke-linecap:round;
  stroke-linejoin:round;
  stroke-width: 1.41442;
}
.l15{
 fill: #ff7777; fill-opacity: 0.5;
  stroke: #ff7777;
  stroke-linecap:round;
  stroke-linejoin:round;
  stroke-width: 1.41442;
}
.l16{
 fill: #bfff81; fill-opacity: 0.5;
  stroke: #bfff81;
  stroke-linecap:round;
  stroke-linejoin:round;
  stroke-width: 1.41442;
}
.l17{
  fill: none;
  stroke: #00ffcc;
  stroke-linecap:round;
  stroke-linejoin:round;
  stroke-width: 1.41442;
}
.l18{
 fill: #ce0097; fill-opacity: 0.5;
  stroke: #ce0097;
  stroke-linecap:round;
  stroke-linejoin:round;
  stroke-width: 1.41442;
}
.l19{
  fill: none;
  stroke: #d2d46b;
  stroke-linecap:round;
  stroke-linejoin:round;
  stroke-width: 1.41442;
}
.l20{
  fill: none;
  stroke: #ef6158;
  stroke-linecap:round;
  stroke-linejoin:round;
  stroke-width: 1.41442;
}
.l21{
  fill: none;
  stroke: #fdb200;
  stroke-linecap:round;
  stroke-linejoin:round;
  stroke-width: 1.41442;
}
text {font-family: Sans-Serif;}
</style>
<rect class="l0" x="0" y="0" width="1850" height="919"/>
<text fill="#00ccee"  xml:space="preserve" font-size="22.4736" transform="translate(1311.51, 248.435)" >Q</text>
<text fill="#00ccee"  xml:space="preserve" font-size="22.4736" transform="translate(1311.51, 392.497)" >Qn</text>
<text fill="#00ccee"  xml:space="preserve" font-size="22.4736" transform="translate(913.642, 108.728) rotate(270)" >VDD</text>
<text fill="#00ccee"  xml:space="preserve" font-size="22.4736" transform="translate(461.824, 613.097)" >GND</text>
<text fill="#00ccee"  xml:space="preserve" font-size="22.4736" transform="translate(497.256, 248.435)" >D</text>
<text fill="#00ccee"  xml:space="preserve" font-size="22.4736" transform="translate(483.256, 392.497)" >Dn</text>
<text fill="#00ccee"  xml:space="preserve" font-size="22.4736" transform="translate(468.824, 796.449)" >CLK</text>
<text fill="#cccccc"  xml:space="preserve" font-size="13.6204" transform="translate(703.989, 377.002) rotate(270)" >M2</text>
<text fill="#cccccc"  xml:space="preserve" font-size="13.6204" transform="translate(684.344, 377.002) rotate(270)" >pfet_01v8</text>
<text fill="#aaaa00"  xml:space="preserve" font-size="13.6204" transform="translate(664.699, 377.002) rotate(270)" >1 x 1 / 0.15</text>
<text fill="#cccccc"  xml:space="preserve" font-size="13.6204" transform="translate(801.835, 232.94) rotate(270)" >M3</text>
<text fill="#cccccc"  xml:space="preserve" font-size="13.6204" transform="translate(821.48, 232.94) rotate(270)" >pfet_01v8</text>
<text fill="#aaaa00"  xml:space="preserve" font-size="13.6204" transform="translate(841.125, 232.94) rotate(270)" >1 x 1 / 0.15</text>
<text fill="#cccccc"  xml:space="preserve" font-size="13.6204" transform="translate(1018.31, 232.94) rotate(270)" >M4</text>
<text fill="#cccccc"  xml:space="preserve" font-size="13.6204" transform="translate(998.66, 232.94) rotate(270)" >pfet_01v8</text>
<text fill="#aaaa00"  xml:space="preserve" font-size="13.6204" transform="translate(979.016, 232.94) rotate(270)" >1 x 1 / 0.15</text>
<text fill="#cccccc"  xml:space="preserve" font-size="13.6204" transform="translate(1175.46, 232.94) rotate(270)" >M5</text>
<text fill="#cccccc"  xml:space="preserve" font-size="13.6204" transform="translate(1155.82, 232.94) rotate(270)" >pfet_01v8</text>
<text fill="#aaaa00"  xml:space="preserve" font-size="13.6204" transform="translate(1136.17, 232.94) rotate(270)" >1 x 1 / 0.15</text>
<text fill="#cccccc"  xml:space="preserve" font-size="13.6204" transform="translate(801.835, 377.002) rotate(270)" >M6</text>
<text fill="#cccccc"  xml:space="preserve" font-size="13.6204" transform="translate(821.48, 377.002) rotate(270)" >pfet_01v8</text>
<text fill="#aaaa00"  xml:space="preserve" font-size="13.6204" transform="translate(841.125, 377.002) rotate(270)" >1 x 1 / 0.15</text>
<text fill="#cccccc"  xml:space="preserve" font-size="13.6204" transform="translate(1018.31, 377.002) rotate(270)" >M7</text>
<text fill="#cccccc"  xml:space="preserve" font-size="13.6204" transform="translate(998.66, 377.002) rotate(270)" >pfet_01v8</text>
<text fill="#aaaa00"  xml:space="preserve" font-size="13.6204" transform="translate(979.016, 377.002) rotate(270)" >1 x 1 / 0.15</text>
<text fill="#cccccc"  xml:space="preserve" font-size="13.6204" transform="translate(1175.46, 377.002) rotate(270)" >M8</text>
<text fill="#cccccc"  xml:space="preserve" font-size="13.6204" transform="translate(1155.82, 377.002) rotate(270)" >pfet_01v8</text>
<text fill="#aaaa00"  xml:space="preserve" font-size="13.6204" transform="translate(1136.17, 377.002) rotate(270)" >1 x 1 / 0.15</text>
<text fill="#cccccc"  xml:space="preserve" font-size="13.6204" transform="translate(684.344, 521.063) rotate(270)" >M9</text>
<text fill="#cccccc"  xml:space="preserve" font-size="13.6204" transform="translate(664.699, 521.063) rotate(270)" >nfet_01v8</text>
<text fill="#aaaa00"  xml:space="preserve" font-size="13.6204" transform="translate(645.055, 521.063) rotate(270)" >1 x 1 / 0.15</text>
<text fill="#cccccc"  xml:space="preserve" font-size="13.6204" transform="translate(703.989, 232.94) rotate(270)" >M10</text>
<text fill="#cccccc"  xml:space="preserve" font-size="13.6204" transform="translate(684.344, 232.94) rotate(270)" >pfet_01v8</text>
<text fill="#aaaa00"  xml:space="preserve" font-size="13.6204" transform="translate(664.699, 232.94) rotate(270)" >1 x 1 / 0.15</text>
<text fill="#cccccc"  xml:space="preserve" font-size="13.6204" transform="translate(841.502, 564.16) rotate(270)" >M11</text>
<text fill="#cccccc"  xml:space="preserve" font-size="13.6204" transform="translate(821.857, 603.16) rotate(270)" >nfet_01v8</text>
<text fill="#aaaa00"  xml:space="preserve" font-size="13.6204" transform="translate(802.213, 612.16) rotate(270)" >1 x 1 / 0.15</text>
<text fill="#cccccc"  xml:space="preserve" font-size="13.6204" transform="translate(998.66, 521.063) rotate(270)" >M12</text>
<text fill="#cccccc"  xml:space="preserve" font-size="13.6204" transform="translate(979.016, 521.063) rotate(270)" >nfet_01v8</text>
<text fill="#aaaa00"  xml:space="preserve" font-size="13.6204" transform="translate(959.371, 521.063) rotate(270)" >1 x 1 / 0.30</text>
<text fill="#cccccc"  xml:space="preserve" font-size="13.6204" transform="translate(1155.82, 564.16) rotate(270)" >M13</text>
<text fill="#cccccc"  xml:space="preserve" font-size="13.6204" transform="translate(1136.17, 603.16) rotate(270)" >nfet_01v8</text>
<text fill="#aaaa00"  xml:space="preserve" font-size="13.6204" transform="translate(1116.53, 612.16) rotate(270)" >1 x 1 / 0.15</text>
<text fill="#cccccc"  xml:space="preserve" font-size="13.6204" transform="translate(684.344, 665.125) rotate(270)" >M14</text>
<text fill="#cccccc"  xml:space="preserve" font-size="13.6204" transform="translate(664.699, 665.125) rotate(270)" >nfet_01v8</text>
<text fill="#aaaa00"  xml:space="preserve" font-size="13.6204" transform="translate(645.055, 665.125) rotate(270)" >1 x 1 / 0.15</text>
<text fill="#cccccc"  xml:space="preserve" font-size="13.6204" transform="translate(841.502, 708.221) rotate(270)" >M15</text>
<text fill="#cccccc"  xml:space="preserve" font-size="13.6204" transform="translate(821.857, 747.221) rotate(270)" >nfet_01v8</text>
<text fill="#aaaa00"  xml:space="preserve" font-size="13.6204" transform="translate(802.213, 756.221) rotate(270)" >1 x 1 / 0.15</text>
<text fill="#cccccc"  xml:space="preserve" font-size="13.6204" transform="translate(998.66, 665.125) rotate(270)" >M16</text>
<text fill="#cccccc"  xml:space="preserve" font-size="13.6204" transform="translate(979.016, 665.125) rotate(270)" >nfet_01v8</text>
<text fill="#aaaa00"  xml:space="preserve" font-size="13.6204" transform="translate(959.371, 665.125) rotate(270)" >1 x 1 / 0.30</text>
<text fill="#cccccc"  xml:space="preserve" font-size="13.6204" transform="translate(1155.82, 708.221) rotate(270)" >M17</text>
<text fill="#cccccc"  xml:space="preserve" font-size="13.6204" transform="translate(1136.17, 747.221) rotate(270)" >nfet_01v8</text>
<text fill="#aaaa00"  xml:space="preserve" font-size="13.6204" transform="translate(1116.53, 756.221) rotate(270)" >1 x 1 / 0.15</text>
<path class="l4" d="M689.422 383.55L709.067 383.55"/>
<path class="l4" d="M689.422 383.55L689.422 403.195"/>
<path class="l4" d="M642.766 403.195L696.789 403.195"/>
<path class="l4" d="M650.132 383.55L650.132 403.195"/>
<path class="l4" d="M630.488 383.55L650.132 383.55"/>
<path class="l4" d="M650.132 408.106L689.422 408.106"/>
<path class="l4" d="M669.777 415.473L669.777 422.84"/>
<circle class="l4" cx="669.777" cy="411.789" r="3.68339" style="fill:none;"/>
<path class="l4" d="M787.646 239.489L807.29 239.489"/>
<path class="l4" d="M807.29 239.489L807.29 259.133"/>
<path class="l4" d="M799.924 259.133L853.947 259.133"/>
<path class="l4" d="M846.58 239.489L846.58 259.133"/>
<path class="l4" d="M846.58 239.489L866.225 239.489"/>
<path class="l4" d="M807.29 264.045L846.58 264.045"/>
<path class="l4" d="M826.935 271.411L826.935 278.778"/>
<circle class="l4" cx="826.935" cy="267.728" r="3.68339" style="fill:none;"/>
<path class="l4" d="M1003.74 239.489L1023.38 239.489"/>
<path class="l4" d="M1003.74 239.489L1003.74 259.133"/>
<path class="l4" d="M957.082 259.133L1011.1 259.133"/>
<path class="l4" d="M964.448 239.489L964.448 259.133"/>
<path class="l4" d="M944.804 239.489L964.448 239.489"/>
<path class="l4" d="M964.448 264.045L1003.74 264.045"/>
<path class="l4" d="M984.093 271.411L984.093 278.778"/>
<circle class="l4" cx="984.093" cy="267.728" r="3.68339" style="fill:none;"/>
<path class="l4" d="M1160.9 239.489L1180.54 239.489"/>
<path class="l4" d="M1160.9 239.489L1160.9 259.133"/>
<path class="l4" d="M1114.24 259.133L1168.26 259.133"/>
<path class="l4" d="M1121.61 239.489L1121.61 259.133"/>
<path class="l4" d="M1101.96 239.489L1121.61 239.489"/>
<path class="l4" d="M1121.61 264.045L1160.9 264.045"/>
<path class="l4" d="M1141.25 271.411L1141.25 278.778"/>
<circle class="l4" cx="1141.25" cy="267.728" r="3.68339" style="fill:none;"/>
<path class="l4" d="M787.646 383.55L807.29 383.55"/>
<path class="l4" d="M807.29 383.55L807.29 403.195"/>
<path class="l4" d="M799.924 403.195L853.947 403.195"/>
<path class="l4" d="M846.58 383.55L846.58 403.195"/>
<path class="l4" d="M846.58 383.55L866.225 383.55"/>
<path class="l4" d="M807.29 408.106L846.58 408.106"/>
<path class="l4" d="M826.935 415.473L826.935 422.84"/>
<circle class="l4" cx="826.935" cy="411.789" r="3.68339" style="fill:none;"/>
<path class="l4" d="M1003.74 383.55L1023.38 383.55"/>
<path class="l4" d="M1003.74 383.55L1003.74 403.195"/>
<path class="l4" d="M957.082 403.195L1011.1 403.195"/>
<path class="l4" d="M964.448 383.55L964.448 403.195"/>
<path class="l4" d="M944.804 383.55L964.448 383.55"/>
<path class="l4" d="M964.448 408.106L1003.74 408.106"/>
<path class="l4" d="M984.093 415.473L984.093 422.84"/>
<circle class="l4" cx="984.093" cy="411.789" r="3.68339" style="fill:none;"/>
<path class="l4" d="M1160.9 383.55L1180.54 383.55"/>
<path class="l4" d="M1160.9 383.55L1160.9 403.195"/>
<path class="l4" d="M1114.24 403.195L1168.26 403.195"/>
<path class="l4" d="M1121.61 383.55L1121.61 403.195"/>
<path class="l4" d="M1101.96 383.55L1121.61 383.55"/>
<path class="l4" d="M1121.61 408.106L1160.9 408.106"/>
<path class="l4" d="M1141.25 415.473L1141.25 422.84"/>
<circle class="l4" cx="1141.25" cy="411.789" r="3.68339" style="fill:none;"/>
<path class="l4" d="M689.422 527.612L709.067 527.612"/>
<path class="l4" d="M689.422 527.612L689.422 547.256"/>
<path class="l4" d="M642.766 547.256L696.789 547.256"/>
<path class="l4" d="M650.132 527.612L650.132 547.256"/>
<path class="l4" d="M630.488 527.612L650.132 527.612"/>
<path class="l4" d="M650.132 552.168L689.422 552.168"/>
<path class="l4" d="M669.777 552.168L669.777 566.901"/>
<path class="l4" d="M689.422 239.489L709.067 239.489"/>
<path class="l4" d="M689.422 239.489L689.422 259.133"/>
<path class="l4" d="M642.766 259.133L696.789 259.133"/>
<path class="l4" d="M650.132 239.489L650.132 259.133"/>
<path class="l4" d="M630.488 239.489L650.132 239.489"/>
<path class="l4" d="M650.132 264.045L689.422 264.045"/>
<path class="l4" d="M669.777 271.411L669.777 278.778"/>
<circle class="l4" cx="669.777" cy="267.728" r="3.68339" style="fill:none;"/>
<path class="l4" d="M846.58 527.612L866.225 527.612"/>
<path class="l4" d="M846.58 507.967L846.58 527.612"/>
<path class="l4" d="M799.924 507.967L853.947 507.967"/>
<path class="l4" d="M807.29 507.967L807.29 527.612"/>
<path class="l4" d="M787.646 527.612L807.29 527.612"/>
<path class="l4" d="M807.29 503.056L846.58 503.056"/>
<path class="l4" d="M826.935 488.322L826.935 503.056"/>
<path class="l4" d="M1003.74 527.612L1023.38 527.612"/>
<path class="l4" d="M1003.74 527.612L1003.74 547.256"/>
<path class="l4" d="M957.082 547.256L1011.1 547.256"/>
<path class="l4" d="M964.448 527.612L964.448 547.256"/>
<path class="l4" d="M944.804 527.612L964.448 527.612"/>
<path class="l4" d="M964.448 552.168L1003.74 552.168"/>
<path class="l4" d="M984.093 552.168L984.093 566.901"/>
<path class="l4" d="M1160.9 527.612L1180.54 527.612"/>
<path class="l4" d="M1160.9 507.967L1160.9 527.612"/>
<path class="l4" d="M1114.24 507.967L1168.26 507.967"/>
<path class="l4" d="M1121.61 507.967L1121.61 527.612"/>
<path class="l4" d="M1101.96 527.612L1121.61 527.612"/>
<path class="l4" d="M1121.61 503.056L1160.9 503.056"/>
<path class="l4" d="M1141.25 488.322L1141.25 503.056"/>
<path class="l4" d="M689.422 671.673L709.067 671.673"/>
<path class="l4" d="M689.422 671.673L689.422 691.318"/>
<path class="l4" d="M642.766 691.318L696.789 691.318"/>
<path class="l4" d="M650.132 671.673L650.132 691.318"/>
<path class="l4" d="M630.488 671.673L650.132 671.673"/>
<path class="l4" d="M650.132 696.229L689.422 696.229"/>
<path class="l4" d="M669.777 696.229L669.777 710.963"/>
<path class="l4" d="M846.58 671.673L866.225 671.673"/>
<path class="l4" d="M846.58 652.028L846.58 671.673"/>
<path class="l4" d="M799.924 652.028L853.947 652.028"/>
<path class="l4" d="M807.29 652.028L807.29 671.673"/>
<path class="l4" d="M787.646 671.673L807.29 671.673"/>
<path class="l4" d="M807.29 647.117L846.58 647.117"/>
<path class="l4" d="M826.935 632.384L826.935 647.117"/>
<path class="l4" d="M1003.74 671.673L1023.38 671.673"/>
<path class="l4" d="M1003.74 671.673L1003.74 691.318"/>
<path class="l4" d="M957.082 691.318L1011.1 691.318"/>
<path class="l4" d="M964.448 671.673L964.448 691.318"/>
<path class="l4" d="M944.804 671.673L964.448 671.673"/>
<path class="l4" d="M964.448 696.229L1003.74 696.229"/>
<path class="l4" d="M984.093 696.229L984.093 710.963"/>
<path class="l4" d="M1160.9 671.673L1180.54 671.673"/>
<path class="l4" d="M1160.9 652.028L1160.9 671.673"/>
<path class="l4" d="M1114.24 652.028L1168.26 652.028"/>
<path class="l4" d="M1121.61 652.028L1121.61 671.673"/>
<path class="l4" d="M1101.96 671.673L1121.61 671.673"/>
<path class="l4" d="M1121.61 647.117L1160.9 647.117"/>
<path class="l4" d="M1141.25 632.384L1141.25 647.117"/>
<path class="l5" d="M629.833 382.895L631.142 382.895L631.142 384.205L629.833 384.205L629.833 382.895z"/>
<path class="l5" d="M669.122 422.185L670.432 422.185L670.432 423.494L669.122 423.494L669.122 422.185z"/>
<path class="l5" d="M708.412 382.895L709.721 382.895L709.721 384.205L708.412 384.205L708.412 382.895z"/>
<path class="l5" d="M865.57 238.834L866.879 238.834L866.879 240.143L865.57 240.143L865.57 238.834z"/>
<path class="l5" d="M826.28 278.123L827.59 278.123L827.59 279.433L826.28 279.433L826.28 278.123z"/>
<path class="l5" d="M786.991 238.834L788.3 238.834L788.3 240.143L786.991 240.143L786.991 238.834z"/>
<path class="l5" d="M944.149 238.834L945.458 238.834L945.458 240.143L944.149 240.143L944.149 238.834z"/>
<path class="l5" d="M983.438 278.123L984.748 278.123L984.748 279.433L983.438 279.433L983.438 278.123z"/>
<path class="l5" d="M1022.73 238.834L1024.04 238.834L1024.04 240.143L1022.73 240.143L1022.73 238.834z"/>
<path class="l5" d="M1101.31 238.834L1102.62 238.834L1102.62 240.143L1101.31 240.143L1101.31 238.834z"/>
<path class="l5" d="M1140.6 278.123L1141.91 278.123L1141.91 279.433L1140.6 279.433L1140.6 278.123z"/>
<path class="l5" d="M1179.89 238.834L1181.2 238.834L1181.2 240.143L1179.89 240.143L1179.89 238.834z"/>
<path class="l5" d="M865.57 382.895L866.879 382.895L866.879 384.205L865.57 384.205L865.57 382.895z"/>
<path class="l5" d="M826.28 422.185L827.59 422.185L827.59 423.494L826.28 423.494L826.28 422.185z"/>
<path class="l5" d="M786.991 382.895L788.3 382.895L788.3 384.205L786.991 384.205L786.991 382.895z"/>
<path class="l5" d="M944.149 382.895L945.458 382.895L945.458 384.205L944.149 384.205L944.149 382.895z"/>
<path class="l5" d="M983.438 422.185L984.748 422.185L984.748 423.494L983.438 423.494L983.438 422.185z"/>
<path class="l5" d="M1022.73 382.895L1024.04 382.895L1024.04 384.205L1022.73 384.205L1022.73 382.895z"/>
<path class="l5" d="M1101.31 382.895L1102.62 382.895L1102.62 384.205L1101.31 384.205L1101.31 382.895z"/>
<path class="l5" d="M1140.6 422.185L1141.91 422.185L1141.91 423.494L1140.6 423.494L1140.6 422.185z"/>
<path class="l5" d="M1179.89 382.895L1181.2 382.895L1181.2 384.205L1179.89 384.205L1179.89 382.895z"/>
<path class="l5" d="M708.412 526.957L709.721 526.957L709.721 528.267L708.412 528.267L708.412 526.957z"/>
<path class="l5" d="M669.122 566.246L670.432 566.246L670.432 567.556L669.122 567.556L669.122 566.246z"/>
<path class="l5" d="M629.833 526.957L631.142 526.957L631.142 528.267L629.833 528.267L629.833 526.957z"/>
<path class="l5" d="M629.833 238.834L631.142 238.834L631.142 240.143L629.833 240.143L629.833 238.834z"/>
<path class="l5" d="M669.122 278.123L670.432 278.123L670.432 279.433L669.122 279.433L669.122 278.123z"/>
<path class="l5" d="M708.412 238.834L709.721 238.834L709.721 240.143L708.412 240.143L708.412 238.834z"/>
<path class="l5" d="M865.57 526.957L866.879 526.957L866.879 528.267L865.57 528.267L865.57 526.957z"/>
<path class="l5" d="M826.28 487.667L827.59 487.667L827.59 488.977L826.28 488.977L826.28 487.667z"/>
<path class="l5" d="M786.991 526.957L788.3 526.957L788.3 528.267L786.991 528.267L786.991 526.957z"/>
<path class="l5" d="M1022.73 526.957L1024.04 526.957L1024.04 528.267L1022.73 528.267L1022.73 526.957z"/>
<path class="l5" d="M983.438 566.246L984.748 566.246L984.748 567.556L983.438 567.556L983.438 566.246z"/>
<path class="l5" d="M944.149 526.957L945.458 526.957L945.458 528.267L944.149 528.267L944.149 526.957z"/>
<path class="l5" d="M1179.89 526.957L1181.2 526.957L1181.2 528.267L1179.89 528.267L1179.89 526.957z"/>
<path class="l5" d="M1140.6 487.667L1141.91 487.667L1141.91 488.977L1140.6 488.977L1140.6 487.667z"/>
<path class="l5" d="M1101.31 526.957L1102.62 526.957L1102.62 528.267L1101.31 528.267L1101.31 526.957z"/>
<path class="l5" d="M708.412 671.018L709.721 671.018L709.721 672.328L708.412 672.328L708.412 671.018z"/>
<path class="l5" d="M669.122 710.308L670.432 710.308L670.432 711.618L669.122 711.618L669.122 710.308z"/>
<path class="l5" d="M629.833 671.018L631.142 671.018L631.142 672.328L629.833 672.328L629.833 671.018z"/>
<path class="l5" d="M865.57 671.018L866.879 671.018L866.879 672.328L865.57 672.328L865.57 671.018z"/>
<path class="l5" d="M826.28 631.729L827.59 631.729L827.59 633.039L826.28 633.039L826.28 631.729z"/>
<path class="l5" d="M786.991 671.018L788.3 671.018L788.3 672.328L786.991 672.328L786.991 671.018z"/>
<path class="l5" d="M1022.73 671.018L1024.04 671.018L1024.04 672.328L1022.73 672.328L1022.73 671.018z"/>
<path class="l5" d="M983.438 710.308L984.748 710.308L984.748 711.618L983.438 711.618L983.438 710.308z"/>
<path class="l5" d="M944.149 671.018L945.458 671.018L945.458 672.328L944.149 672.328L944.149 671.018z"/>
<path class="l5" d="M1179.89 671.018L1181.2 671.018L1181.2 672.328L1179.89 672.328L1179.89 671.018z"/>
<path class="l5" d="M1140.6 631.729L1141.91 631.729L1141.91 633.039L1140.6 633.039L1140.6 631.729z"/>
<path class="l5" d="M1101.31 671.018L1102.62 671.018L1102.62 672.328L1101.31 672.328L1101.31 671.018z"/>
<path class="l5" d="M1285.31 239.489L1296.77 239.489"/>
<path class="l5" d="M1308.23 239.489L1303.32 232.94L1291.86 232.94L1296.77 239.489L1291.86 246.037L1303.32 246.037L1308.23 239.489"/>
<path class="l5" d="M1283.68 237.852L1286.95 237.852L1286.95 241.126L1283.68 241.126L1283.68 237.852z"/>
<path class="l5" d="M1285.31 383.55L1296.77 383.55"/>
<path class="l5" d="M1308.23 383.55L1303.32 377.002L1291.86 377.002L1296.77 383.55L1291.86 390.098L1303.32 390.098L1308.23 383.55"/>
<path class="l5" d="M1283.68 381.913L1286.95 381.913L1286.95 385.187L1283.68 385.187L1283.68 381.913z"/>
<path class="l5" d="M905.514 130.624L905.514 134.717"/>
<path class="l5" d="M912.062 116.709L905.514 111.798L898.966 116.709L898.966 125.713L905.514 130.624L912.062 125.713L912.062 116.709"/>
<path class="l5" d="M903.877 133.079L907.151 133.079L907.151 136.354L903.877 136.354L903.877 133.079z"/>
<path class="l5" d="M534.719 606.191L538.812 606.191"/>
<path class="l5" d="M520.804 599.642L515.893 606.191L520.804 612.739L529.808 612.739L534.719 606.191L529.808 599.642L520.804 599.642"/>
<path class="l5" d="M537.175 604.554L540.449 604.554L540.449 607.828L537.175 607.828L537.175 604.554z"/>
<path class="l5" d="M532.264 239.489L538.812 239.489"/>
<path class="l5" d="M532.264 239.489L527.353 232.94L515.893 232.94L520.804 239.489L515.893 246.037L527.353 246.037L532.264 239.489"/>
<path class="l5" d="M537.175 237.852L540.449 237.852L540.449 241.126L537.175 241.126L537.175 237.852z"/>
<path class="l5" d="M532.264 383.55L538.812 383.55"/>
<path class="l5" d="M532.264 383.55L527.353 377.002L515.893 377.002L520.804 383.55L515.893 390.098L527.353 390.098L532.264 383.55"/>
<path class="l5" d="M537.175 381.913L540.449 381.913L540.449 385.187L537.175 385.187L537.175 381.913z"/>
<path class="l5" d="M534.719 789.542L538.812 789.542"/>
<path class="l5" d="M520.804 782.994L515.893 789.542L520.804 796.09L529.808 796.09L534.719 789.542L529.808 782.994L520.804 782.994"/>
<path class="l5" d="M537.175 787.905L540.449 787.905L540.449 791.179L537.175 791.179L537.175 787.905z"/>
<path class="l1" d="M669.777 278.778L669.777 710.963"/>
<path class="l1" d="M669.777 710.963L669.777 737.156"/>
<path class="l1" d="M984.093 278.778L984.093 710.963"/>
<path class="l1" d="M984.093 710.963L984.093 737.156"/>
<path class="l1" d="M630.488 527.612L630.488 671.673"/>
<path class="l1" d="M669.777 737.156L669.777 789.542"/>
<path class="l1" d="M984.093 737.156L984.093 789.542"/>
<path class="l1" d="M826.935 422.84L826.935 488.322"/>
<path class="l1" d="M1141.25 422.84L1141.25 488.322"/>
<path class="l1" d="M826.935 370.454L826.935 422.84"/>
<path class="l1" d="M866.225 527.612L944.804 527.612"/>
<path class="l1" d="M866.225 671.673L944.804 671.673"/>
<path class="l1" d="M826.935 488.322L826.935 527.612"/>
<path class="l1" d="M905.514 645.48L905.514 671.673"/>
<path class="l1" d="M826.935 527.612L905.514 645.48"/>
<path class="l1" d="M826.935 632.384L905.514 553.805"/>
<path class="l1" d="M905.514 527.612L905.514 553.805"/>
<path class="l1" d="M709.067 527.612L787.646 527.612"/>
<path class="l1" d="M709.067 671.673L787.646 671.673"/>
<path class="l1" d="M1180.54 383.55L1285.31 383.55"/>
<path class="l1" d="M1232.93 357.357L1232.93 383.55"/>
<path class="l1" d="M1023.38 239.489L1101.96 239.489"/>
<path class="l1" d="M1023.38 383.55L1101.96 383.55"/>
<path class="l1" d="M1023.38 527.612L1101.96 527.612"/>
<path class="l1" d="M1023.38 671.673L1101.96 671.673"/>
<path class="l1" d="M1180.54 527.612L1180.54 671.673"/>
<path class="l1" d="M1062.67 632.384L1062.67 671.673"/>
<path class="l1" d="M1141.25 488.322L1141.25 527.612"/>
<path class="l1" d="M1062.67 632.384L1141.25 527.612"/>
<path class="l1" d="M1062.67 527.612L1062.67 540.708"/>
<path class="l1" d="M1180.54 239.489L1285.31 239.489"/>
<path class="l1" d="M1141.25 357.357L1141.25 422.84"/>
<path class="l1" d="M1141.25 278.778L1232.93 357.357"/>
<path class="l1" d="M1232.93 239.489L1232.93 278.778"/>
<path class="l1" d="M1141.25 357.357L1232.93 278.778"/>
<path class="l1" d="M709.067 239.489L787.646 239.489"/>
<path class="l1" d="M866.225 239.489L944.804 239.489"/>
<path class="l1" d="M866.225 383.55L944.804 383.55"/>
<path class="l1" d="M905.514 239.489L905.514 383.55"/>
<path class="l1" d="M905.514 134.717L905.514 239.489"/>
<path class="l1" d="M709.067 383.55L787.646 383.55"/>
<path class="l1" d="M748.356 357.357L748.356 383.55"/>
<path class="l1" d="M826.935 278.778L826.935 291.875"/>
<path class="l1" d="M748.356 357.357L826.935 291.875"/>
<path class="l1" d="M826.935 357.357L826.935 370.454"/>
<path class="l1" d="M748.356 239.489L748.356 291.875"/>
<path class="l1" d="M748.356 291.875L826.935 357.357"/>
<path class="l1" d="M748.356 383.55L748.356 409.743"/>
<path class="l1" d="M748.356 409.743L905.514 488.322"/>
<path class="l1" d="M905.514 488.322L905.514 527.612"/>
<path class="l1" d="M1141.25 619.287L1141.25 632.384"/>
<path class="l1" d="M1062.67 540.708L1141.25 619.287"/>
<path class="l1" d="M538.812 239.489L630.488 239.489"/>
<path class="l1" d="M538.812 383.55L630.488 383.55"/>
<path class="l1" d="M1180.54 671.673L1272.22 671.673"/>
<path class="l1" d="M538.812 606.191L630.488 606.191"/>
<path class="l1" d="M669.777 789.542L984.093 789.542"/>
<path class="l1" d="M538.812 789.542L669.777 789.542"/>
<path class="l1" d="M1272.22 671.673L1272.22 763.349"/>
<path class="l1" d="M538.812 763.349L1272.22 763.349"/>
<path class="l1" d="M538.812 606.191L538.812 763.349"/>
<path class="l1" d="M1062.67 501.419L1062.67 527.612"/>
<path class="l1" d="M1062.67 501.419L1232.93 409.743"/>
<path class="l1" d="M1232.93 383.55L1232.93 409.743"/>
<circle class="l1" cx="669.777" cy="789.542" r="5.2386"/>
<circle class="l1" cx="630.488" cy="606.191" r="5.2386"/>
<circle class="l1" cx="748.356" cy="239.489" r="5.2386"/>
<circle class="l1" cx="748.356" cy="383.55" r="5.2386"/>
<circle class="l1" cx="905.514" cy="239.489" r="5.2386"/>
<circle class="l1" cx="905.514" cy="239.489" r="5.2386"/>
<circle class="l1" cx="905.514" cy="383.55" r="5.2386"/>
<circle class="l1" cx="1062.67" cy="527.612" r="5.2386"/>
<circle class="l1" cx="669.777" cy="789.542" r="5.2386"/>
<circle class="l1" cx="905.514" cy="527.612" r="5.2386"/>
<circle class="l1" cx="748.356" cy="383.55" r="5.2386"/>
<circle class="l1" cx="1062.67" cy="527.612" r="5.2386"/>
<circle class="l1" cx="1062.67" cy="671.673" r="5.2386"/>
<circle class="l1" cx="905.514" cy="527.612" r="5.2386"/>
<circle class="l1" cx="905.514" cy="671.673" r="5.2386"/>
<circle class="l1" cx="669.777" cy="789.542" r="5.2386"/>
<circle class="l1" cx="1232.93" cy="239.489" r="5.2386"/>
<circle class="l1" cx="1232.93" cy="383.55" r="5.2386"/>
<circle class="l1" cx="1232.93" cy="383.55" r="5.2386"/>
</svg>
